# xmcd
#
# Track frame offsets: 
#        150
#        13075
#        29737
#        42372
#        55722
#        68805
#        98187
#        108580
#        122122
#        136562
#        148635
#        160632
#
# Disc length: 2463 seconds
#
# Revision: 2
# Processed by: cddbd v1.5.2PL0 Copyright (c) Steve Scherf et al.
# Submitted via: ExactAudioCopy v1.0b3
#
DISCID=a1099d0c
DTITLE=Stands, The - All Years Leaving
DYEAR=2004
DGENRE=Pop
TTITLE0=I've Waited So Long
TTITLE1=All Years Leaving
TTITLE2=Outside Your Door
TTITLE3=When This River Rolls Over You
TTITLE4=It's Only Everything
TTITLE5=Always Is The Same - Shine On
TTITLE6=Here She Comes Again
TTITLE7=The Big Parade
TTITLE8=The Love You Give
TTITLE9=I Need You
TTITLE10=Some Weekend Night
TTITLE11=The Way She Does
EXTD=
EXTT0=
EXTT1=
EXTT2=
EXTT3=
EXTT4=
EXTT5=
EXTT6=
EXTT7=
EXTT8=
EXTT9=
EXTT10=
EXTT11=
PLAYORDER=
